<svg width="20" height="20" viewBox="0 0 20 20" fill="none" xmlns="http://www.w3.org/2000/svg">
<path d="M15.2556 9.57225C14.5447 9.56661 13.8486 9.77556 13.2583 10.1718C12.668 10.568 12.211 11.1331 11.9469 11.7932C11.6829 12.4533 11.6241 13.1777 11.7783 13.8718C11.9325 14.5658 12.2925 15.1972 12.8112 15.6834L11.7334 17L12.2334 19.0056L14.2667 16.5278C14.9104 16.7181 15.5953 16.7181 16.2389 16.5278L18.2723 19.0056L18.7723 17L17.6945 15.6834C18.2132 15.1972 18.5732 14.5658 18.7273 13.8718C18.8815 13.1777 18.8228 12.4533 18.5587 11.7932C18.2947 11.1331 17.8377 10.568 17.2474 10.1718C16.6571 9.77556 15.961 9.56661 15.2501 9.57225H15.2556ZM15.2556 15.5056C14.7835 15.499 14.3239 15.353 13.9345 15.0859C13.5452 14.8189 13.2435 14.4427 13.0673 14.0046C12.8912 13.5665 12.8485 13.0862 12.9446 12.6239C13.0408 12.1617 13.2714 11.7381 13.6076 11.4066C13.9437 11.075 14.3704 10.8503 14.8339 10.7606C15.2975 10.6708 15.7772 10.7202 16.2128 10.9023C16.6484 11.0845 17.0204 11.3914 17.282 11.7844C17.5437 12.1774 17.6833 12.639 17.6834 13.1111C17.6775 13.7502 17.4188 14.3608 16.9638 14.8096C16.5088 15.2583 15.8946 15.5086 15.2556 15.5056V15.5056Z" fill="#0FB582"/>
<path d="M16.6666 7.50004C15.5616 7.50004 14.5018 7.06105 13.7204 6.27965C12.939 5.49825 12.5 4.43844 12.5 3.33337H2.2222C1.92751 3.33337 1.64489 3.45044 1.43652 3.65881C1.22815 3.86718 1.11108 4.1498 1.11108 4.44449V15.5556C1.11108 15.8503 1.22815 16.1329 1.43652 16.3413C1.64489 16.5496 1.92751 16.6667 2.2222 16.6667H10.5555L10.8722 16.2778L11.3889 15.6445C10.6988 14.6486 10.4263 13.422 10.6297 12.2276C10.8332 11.0332 11.4964 9.96601 12.4772 9.25472C13.458 8.54343 14.6785 8.24464 15.877 8.42238C17.0755 8.60012 18.1567 9.24026 18.8889 10.2056V6.87226C18.2226 7.28783 17.4519 7.50554 16.6666 7.50004V7.50004ZM9.44442 13.6667H3.88886V12.7778H9.44442V13.6667ZM9.99997 9.77782H3.88886V8.88893H9.99997V9.77782ZM13.3333 7.5556H3.88886V6.66671H13.3333V7.5556Z" fill="#0FB582"/>
<path d="M16.6667 6.1111C18.2008 6.1111 19.4445 4.86744 19.4445 3.33332C19.4445 1.7992 18.2008 0.555542 16.6667 0.555542C15.1326 0.555542 13.8889 1.7992 13.8889 3.33332C13.8889 4.86744 15.1326 6.1111 16.6667 6.1111Z" fill="#0FB582"/>
</svg>
