<svg width="20" height="20" viewBox="0 0 20 20" fill="none" xmlns="http://www.w3.org/2000/svg">
<g clip-path="url(#clip0)">
<path d="M1.91502 19.2687C1.84783 19.1772 2.04189 18.5275 2.08127 18.4809C3.10346 17.2909 3.14096 13.4622 3.12002 12.9165C3.06877 11.6572 3.73627 10.3834 4.29939 10.6587C4.84314 10.9244 5.26939 13.5431 5.37408 14.0672C5.63252 15.3487 5.53127 16.8828 5.11627 18.0978C4.67814 19.3844 2.98471 20.69 1.91502 19.2687Z" fill="#0FB582"/>
<path d="M18.1172 19.2687C18.1841 19.1772 17.9903 18.5275 17.9506 18.4809C16.9284 17.2909 16.8913 13.4622 16.9122 12.9165C16.9631 11.6572 16.2956 10.3834 15.7325 10.6587C15.1891 10.9244 14.7628 13.5431 14.6581 14.0672C14.3997 15.3487 14.5009 16.8828 14.9159 18.0978C15.3538 19.3844 17.0472 20.69 18.1172 19.2687Z" fill="#0FB582"/>
<path d="M0.756462 5.4167C1.43146 6.09201 3.02052 5.59576 4.30865 4.30733C5.59615 3.01983 6.0924 1.43139 5.4174 0.755763C4.74396 0.0829507 2.03802 -0.537674 0.7499 0.749826C-0.5376 2.03733 0.0830247 4.74389 0.756462 5.4167Z" fill="#242220"/>
<path d="M19.1937 5.41682C18.519 6.09214 16.93 5.59589 15.6419 4.30745C14.3544 3.01995 13.8581 1.43151 14.5328 0.755885C15.2065 0.0830728 17.9122 -0.537552 19.2003 0.749948C20.4878 2.03745 19.8672 4.74401 19.1937 5.41682Z" fill="#242220"/>
<path d="M19.0028 10.3343C19.0028 15.3278 14.956 19.3756 9.9622 19.3756C4.96845 19.3756 0.921265 15.3281 0.921265 10.3343C0.921265 5.34185 4.96814 1.8656 9.96189 1.8656C14.9556 1.8656 19.0028 5.34154 19.0028 10.3343Z" fill="#0FB582"/>
<path d="M16.7281 10.4063C16.7281 14.1441 13.6987 17.1738 9.96062 17.1738C6.22249 17.1738 3.19312 14.1441 3.19312 10.4063C3.19312 6.66943 6.2228 4.06787 9.96062 4.06787C13.6984 4.06787 16.7281 6.66943 16.7281 10.4063Z" fill="#E7E6E6"/>
<path d="M10.7992 10.9782C10.7992 11.5269 10.3633 11.9707 9.82514 11.9707C9.28701 11.9707 8.85107 11.5269 8.85107 10.9782V6.31381C8.85107 5.76663 9.28701 5.32288 9.82514 5.32288C10.3636 5.32288 10.7992 5.76663 10.7992 6.31381V10.9782Z" fill="#25333A"/>
<path d="M9.88291 11.9719C9.31166 11.9719 8.8501 11.6694 8.8501 11.2966C8.8501 10.9247 9.31166 10.6226 9.88291 10.6226H14.7445C15.3154 10.6226 15.7782 10.9247 15.7782 11.2966C15.7782 11.6694 15.3157 11.9719 14.7445 11.9719H9.88291Z" fill="#25333A"/>
</g>
<defs>
<clipPath id="clip0">
<rect width="20" height="20" fill="white"/>
</clipPath>
</defs>
</svg>
