<svg width="20" height="20" viewBox="0 0 20 20" fill="none" xmlns="http://www.w3.org/2000/svg">
<path d="M10.0312 19.0938C14.3805 19.0938 17.9062 15.554 17.9062 11.1875C17.9062 6.821 14.3805 3.28125 10.0312 3.28125C5.68201 3.28125 2.15625 6.821 2.15625 11.1875C2.15625 15.554 5.68201 19.0938 10.0312 19.0938Z" fill="#0FB582"/>
<path d="M10.0312 17.3438C13.414 17.3438 16.1562 14.5875 16.1562 11.1875C16.1562 7.7875 13.414 5.03125 10.0312 5.03125C6.64851 5.03125 3.90625 7.7875 3.90625 11.1875C3.90625 14.5875 6.64851 17.3438 10.0312 17.3438Z" fill="white"/>
<path d="M3.4375 15.0938L2.75 19.375H3.34375C3.71875 19.375 3.84375 18.9375 4.09375 18.4063C4.40625 17.7188 5.15625 15.9375 5.15625 15.9375L3.4375 15.0938Z" fill="#0FB582"/>
<path d="M16.5937 15.0938L17.3125 19.375H16.7187C16.3437 19.375 16.2187 18.9375 15.9687 18.4063C15.6562 17.7188 14.9062 15.9375 14.9062 15.9375L16.5937 15.0938Z" fill="#0FB582"/>
<path d="M4.15625 3.1875L6 5.03125L5.03125 6.03125L3.1875 4.15625L4.15625 3.1875Z" fill="#0FB582"/>
<path d="M15.9062 3.1875L14.0625 5.03125L15.0312 6.03125L16.875 4.15625L15.9062 3.1875Z" fill="#0FB582"/>
<path d="M1.78125 7.375L7.28125 1.78125C6.59375 1.0625 5.625 0.625 4.53125 0.625C2.375 0.625 0.625 2.40625 0.625 4.5625C0.625 5.65625 1.0625 6.65625 1.78125 7.375Z" fill="#B0B8B8"/>
<path d="M12.6562 1.8125L18.2187 7.34375C18.9375 6.625 19.375 5.65625 19.375 4.5625C19.375 2.40625 17.625 0.625 15.4375 0.625C14.3438 0.65625 13.375 1.09375 12.6562 1.8125Z" fill="#B0B8B8"/>
<path d="M6.4375 14.5625L9.65625 11.2812L10.0312 11.6563L6.8125 14.9063L6.4375 14.5625Z" fill="#ED4C5C"/>
<path d="M10.0312 12.3438C10.6698 12.3438 11.1875 11.8261 11.1875 11.1875C11.1875 10.5489 10.6698 10.0312 10.0312 10.0312C9.39267 10.0312 8.875 10.5489 8.875 11.1875C8.875 11.8261 9.39267 12.3438 10.0312 12.3438Z" fill="#0FB582"/>
<path d="M9.4375 6.78125H10.5938V11.4688H9.4375V6.78125Z" fill="#0FB582"/>
<path d="M10.5938 10.5938H12.9375V11.75H10.5938V10.5938Z" fill="#0FB582"/>
</svg>
