<svg width="20" height="20" viewBox="0 0 20 20" fill="none" xmlns="http://www.w3.org/2000/svg">
<path d="M20 19.1667C20 19.3924 19.9382 19.5877 19.8145 19.7526C19.6908 19.9175 19.5443 20 19.375 20C19.2057 20 19.0592 19.9175 18.9355 19.7526C18.8118 19.5877 18.75 19.3924 18.75 19.1667V8.20312L11.8555 12.8125C11.3346 13.1597 10.7161 13.3333 10 13.3333C9.28385 13.3333 8.66536 13.1597 8.14453 12.8125L0.761719 7.89062C0.253906 7.5434 0 7.13108 0 6.65365C0 6.17622 0.253906 5.77257 0.761719 5.44271L8.14453 0.520833C8.66536 0.173611 9.28385 0 10 0C10.7161 0 11.3346 0.173611 11.8555 0.520833L19.2383 5.44271C19.681 5.73785 19.9284 6.10243 19.9805 6.53646C19.9935 6.55382 20 6.58854 20 6.64062V19.1667ZM12.4805 14.4792L16.25 11.9531V15.625C16.25 16.3715 15.6413 17.0095 14.4238 17.5391C13.2064 18.0686 11.7318 18.3333 10 18.3333C8.26823 18.3333 6.79362 18.0686 5.57617 17.5391C4.35872 17.0095 3.75 16.3715 3.75 15.625V11.9531L7.51953 14.4792C8.04036 14.8264 8.86719 15 10 15C11.1328 15 11.9596 14.8264 12.4805 14.4792Z" fill="#0FB582"/>
</svg>
